<svg xmlns="http://www.w3.org/2000/svg" viewBox="0 0 1024 1024" width="1024" height="1024">
<path d="M 717 651 Z" fill="#2C3E50"/><path d="M 889 650 Z" fill="#2C3E50"/><path d="M 307 623 Z" fill="#2C3E50"/><path d="M 633 602 Z" fill="#2C3E50"/><path d="M 206 595 L 204 597 L 204 598 L 205 599 L 205 600 L 209 604 L 209 605 L 211 607 L 211 608 L 212 609 L 212 610 L 213 611 L 213 612 L 214 613 L 214 663 L 247 663 L 248 662 L 247 661 L 247 628 L 248 627 L 248 625 L 247 624 L 248 623 L 248 622 L 249 621 L 250 621 L 251 620 L 255 620 L 258 623 L 258 661 L 259 662 L 276 662 L 276 624 L 277 623 L 277 622 L 278 621 L 279 621 L 280 620 L 283 620 L 284 621 L 285 621 L 286 622 L 286 662 L 299 662 L 300 663 L 301 662 L 302 663 L 303 662 L 304 662 L 304 624 L 305 623 L 305 622 L 306 621 L 307 621 L 308 620 L 310 620 L 311 621 L 312 621 L 313 622 L 313 623 L 314 624 L 314 663 L 349 663 L 349 656 L 348 655 L 349 654 L 349 611 L 350 610 L 350 609 L 351 608 L 351 607 L 357 601 L 357 600 L 358 599 L 358 596 L 357 595 Z" fill="#2C3E50"/><path d="M 237 570 Z" fill="#2C3E50"/><path d="M 237 568 Z" fill="#2C3E50"/><path d="M 748 563 L 747 564 L 745 564 L 744 565 L 742 565 L 741 566 L 739 566 L 738 567 L 736 567 L 735 568 L 734 568 L 733 569 L 731 569 L 730 570 L 727 570 L 726 571 L 724 571 L 723 572 L 721 572 L 720 573 L 717 573 L 716 574 L 713 574 L 712 575 L 712 578 L 713 579 L 713 580 L 714 581 L 719 581 L 720 582 L 721 582 L 724 585 L 724 586 L 725 587 L 725 589 L 726 590 L 726 643 L 725 644 L 725 648 L 720 653 L 716 653 L 715 654 L 714 653 L 713 654 L 713 660 L 715 662 L 719 662 L 720 661 L 765 661 L 766 660 L 766 654 L 764 654 L 763 653 L 760 653 L 759 652 L 757 652 L 756 651 L 755 651 L 753 649 L 753 648 L 752 647 L 752 646 L 751 645 L 751 639 L 750 638 L 750 607 L 751 606 L 751 599 L 752 598 L 752 596 L 753 595 L 753 594 L 755 592 L 755 591 L 757 589 L 757 588 L 761 584 L 762 584 L 763 583 L 766 583 L 769 586 L 770 586 L 773 589 L 777 589 L 778 588 L 779 588 L 780 587 L 781 587 L 785 583 L 785 582 L 786 581 L 786 579 L 787 578 L 787 573 L 786 572 L 786 569 L 781 564 L 780 564 L 779 563 L 771 563 L 770 564 L 768 564 L 767 565 L 766 565 L 764 567 L 763 567 L 760 570 L 760 571 L 757 574 L 757 575 L 755 577 L 755 578 L 753 580 L 753 582 L 752 583 L 751 582 L 751 565 L 749 563 Z" fill="#2C3E50"/><path d="M 661 562 L 660 563 L 656 563 L 655 564 L 653 564 L 652 565 L 650 565 L 649 566 L 647 566 L 646 567 L 645 567 L 643 569 L 642 569 L 641 570 L 640 570 L 638 572 L 637 572 L 628 581 L 628 582 L 627 583 L 627 584 L 626 585 L 626 586 L 625 587 L 625 594 L 626 595 L 626 596 L 628 598 L 629 598 L 630 599 L 631 599 L 632 600 L 638 600 L 639 599 L 640 599 L 641 598 L 642 598 L 645 595 L 645 594 L 646 593 L 646 592 L 647 591 L 647 584 L 646 583 L 646 578 L 648 576 L 649 576 L 650 575 L 652 575 L 653 574 L 656 574 L 657 575 L 660 575 L 661 576 L 663 576 L 665 578 L 666 578 L 669 581 L 669 582 L 671 584 L 671 586 L 672 587 L 672 590 L 673 591 L 673 601 L 670 604 L 669 604 L 668 605 L 666 605 L 665 606 L 664 606 L 663 607 L 662 607 L 661 608 L 659 608 L 658 609 L 656 609 L 655 610 L 653 610 L 652 611 L 650 611 L 649 612 L 647 612 L 646 613 L 644 613 L 643 614 L 642 614 L 641 615 L 640 615 L 639 616 L 637 616 L 635 618 L 634 618 L 633 619 L 632 619 L 625 626 L 625 627 L 624 628 L 624 629 L 623 630 L 623 631 L 622 632 L 622 638 L 621 639 L 621 641 L 622 642 L 622 647 L 623 648 L 623 650 L 624 651 L 624 652 L 626 654 L 626 655 L 629 658 L 630 658 L 632 660 L 633 660 L 634 661 L 635 661 L 636 662 L 638 662 L 639 663 L 645 663 L 646 664 L 647 663 L 653 663 L 654 662 L 656 662 L 657 661 L 658 661 L 659 660 L 661 660 L 663 658 L 664 658 L 666 656 L 667 656 L 671 652 L 672 652 L 672 651 L 673 650 L 674 650 L 675 651 L 675 655 L 676 656 L 676 657 L 677 658 L 677 659 L 680 662 L 682 662 L 683 663 L 686 663 L 687 664 L 695 664 L 696 663 L 698 663 L 699 662 L 700 662 L 701 661 L 702 661 L 703 660 L 704 660 L 713 651 L 713 650 L 714 649 L 714 645 L 713 644 L 711 644 L 708 647 L 707 647 L 706 648 L 701 648 L 700 647 L 699 647 L 698 646 L 698 645 L 697 644 L 697 586 L 696 585 L 696 583 L 695 582 L 695 580 L 694 579 L 694 577 L 692 575 L 692 574 L 685 567 L 684 567 L 683 566 L 682 566 L 681 565 L 680 565 L 679 564 L 677 564 L 676 563 L 672 563 L 671 562 Z" fill="#2C3E50"/><path d="M 562 562 L 561 563 L 556 563 L 555 564 L 552 564 L 551 565 L 550 565 L 549 566 L 547 566 L 546 567 L 545 567 L 544 568 L 543 568 L 541 570 L 540 570 L 537 573 L 536 573 L 530 579 L 530 580 L 527 583 L 527 584 L 525 586 L 525 587 L 524 588 L 524 589 L 523 590 L 523 591 L 522 592 L 522 593 L 521 594 L 521 596 L 520 597 L 520 599 L 519 600 L 519 605 L 518 606 L 518 621 L 519 622 L 519 626 L 520 627 L 520 630 L 521 631 L 521 633 L 522 634 L 522 636 L 523 637 L 523 638 L 524 639 L 524 640 L 526 642 L 526 643 L 528 645 L 528 646 L 536 654 L 537 654 L 540 657 L 541 657 L 542 658 L 543 658 L 544 659 L 545 659 L 546 660 L 547 660 L 548 661 L 550 661 L 551 662 L 554 662 L 555 663 L 558 663 L 559 664 L 572 664 L 573 663 L 578 663 L 579 662 L 581 662 L 582 661 L 584 661 L 585 660 L 586 660 L 587 659 L 588 659 L 589 658 L 590 658 L 591 657 L 592 657 L 594 655 L 595 655 L 605 645 L 605 644 L 607 642 L 607 641 L 608 640 L 608 639 L 609 638 L 609 637 L 610 636 L 610 635 L 611 634 L 611 632 L 612 631 L 612 629 L 613 628 L 613 625 L 614 624 L 614 603 L 613 602 L 613 598 L 612 597 L 612 595 L 611 594 L 611 592 L 610 591 L 610 590 L 609 589 L 609 588 L 608 587 L 608 586 L 607 585 L 607 584 L 605 582 L 605 581 L 595 571 L 594 571 L 592 569 L 591 569 L 590 568 L 589 568 L 588 567 L 587 567 L 586 566 L 585 566 L 584 565 L 582 565 L 581 564 L 578 564 L 577 563 L 573 563 L 572 562 Z" fill="#2C3E50"/><path d="M 848 561 Z" fill="#2C3E50"/><path d="M 399 524 L 399 530 L 400 531 L 400 532 L 401 532 L 402 533 L 405 533 L 406 534 L 407 534 L 408 535 L 409 535 L 411 537 L 411 538 L 412 539 L 412 540 L 413 541 L 413 546 L 414 547 L 414 570 L 413 571 L 414 572 L 413 573 L 413 574 L 414 575 L 413 576 L 413 588 L 414 589 L 414 590 L 413 591 L 414 592 L 413 593 L 413 630 L 414 631 L 413 632 L 413 633 L 414 634 L 414 637 L 413 638 L 413 645 L 412 646 L 412 647 L 408 651 L 407 651 L 406 652 L 404 652 L 403 653 L 399 653 L 399 654 L 400 655 L 400 661 L 469 661 L 470 660 L 475 660 L 476 659 L 479 659 L 480 658 L 482 658 L 483 657 L 485 657 L 486 656 L 487 656 L 488 655 L 489 655 L 490 654 L 491 654 L 492 653 L 493 653 L 495 651 L 496 651 L 500 647 L 501 647 L 501 646 L 504 643 L 504 642 L 506 640 L 506 639 L 507 638 L 507 637 L 508 636 L 508 634 L 509 633 L 509 630 L 510 629 L 510 616 L 509 615 L 509 612 L 508 611 L 508 610 L 507 609 L 507 608 L 506 607 L 506 606 L 505 605 L 505 604 L 502 601 L 502 600 L 499 597 L 498 597 L 495 594 L 494 594 L 492 592 L 491 592 L 490 591 L 489 591 L 488 590 L 486 590 L 485 589 L 483 589 L 482 588 L 479 588 L 478 587 L 474 587 L 473 586 L 474 585 L 479 585 L 480 584 L 481 584 L 482 583 L 484 583 L 486 581 L 487 581 L 488 580 L 489 580 L 496 573 L 496 572 L 497 571 L 497 570 L 498 569 L 498 568 L 499 567 L 499 565 L 500 564 L 500 559 L 501 558 L 501 554 L 500 553 L 500 548 L 499 547 L 499 545 L 498 544 L 498 543 L 497 542 L 497 541 L 494 538 L 494 537 L 492 535 L 491 535 L 488 532 L 487 532 L 485 530 L 484 530 L 483 529 L 481 529 L 480 528 L 479 528 L 478 527 L 475 527 L 474 526 L 471 526 L 470 525 L 464 525 L 463 524 Z" fill="#2C3E50"/><path d="M 872 507 L 871 508 L 869 508 L 868 509 L 865 509 L 864 510 L 863 510 L 862 511 L 860 511 L 859 512 L 856 512 L 855 513 L 853 513 L 852 514 L 850 514 L 849 515 L 846 515 L 845 516 L 843 516 L 842 517 L 839 517 L 838 518 L 837 518 L 837 523 L 839 525 L 842 525 L 843 526 L 844 526 L 845 527 L 846 527 L 848 529 L 848 530 L 849 531 L 849 533 L 850 534 L 850 563 L 849 564 L 848 563 L 846 563 L 845 562 L 840 562 L 839 561 L 830 561 L 829 562 L 825 562 L 824 563 L 821 563 L 820 564 L 819 564 L 818 565 L 817 565 L 816 566 L 814 566 L 812 568 L 811 568 L 809 570 L 808 570 L 805 573 L 804 573 L 798 579 L 798 580 L 794 584 L 794 585 L 792 587 L 792 588 L 791 589 L 791 590 L 790 591 L 790 592 L 789 593 L 789 594 L 788 595 L 788 596 L 787 597 L 787 599 L 786 600 L 786 603 L 785 604 L 785 610 L 784 611 L 784 623 L 785 624 L 785 631 L 786 632 L 786 635 L 787 636 L 787 638 L 788 639 L 788 640 L 789 641 L 789 643 L 790 644 L 790 645 L 792 647 L 792 648 L 795 651 L 795 652 L 798 655 L 799 655 L 802 658 L 803 658 L 804 659 L 805 659 L 806 660 L 807 660 L 808 661 L 809 661 L 810 662 L 812 662 L 813 663 L 829 663 L 830 662 L 832 662 L 833 661 L 835 661 L 836 660 L 837 660 L 838 659 L 839 659 L 840 658 L 841 658 L 842 657 L 843 657 L 846 654 L 847 654 L 850 651 L 851 652 L 851 659 L 852 660 L 852 662 L 853 663 L 860 663 L 861 662 L 863 662 L 864 661 L 866 661 L 867 660 L 869 660 L 870 659 L 873 659 L 874 658 L 876 658 L 877 657 L 879 657 L 880 656 L 883 656 L 884 655 L 886 655 L 887 654 L 887 647 L 886 646 L 885 647 L 884 647 L 883 646 L 880 646 L 879 645 L 878 645 L 877 644 L 877 643 L 876 642 L 876 641 L 875 640 L 875 620 L 874 619 L 874 508 L 873 507 Z" fill="#2C3E50"/><path d="M 232 498 L 232 499 L 233 500 L 233 501 L 235 503 L 235 504 L 238 507 L 238 508 L 239 509 L 239 572 L 238 573 L 237 572 L 236 573 L 215 573 L 214 574 L 213 574 L 212 575 L 212 578 L 211 579 L 212 580 L 212 586 L 213 587 L 215 587 L 216 588 L 218 588 L 219 587 L 220 588 L 345 588 L 346 587 L 349 587 L 350 586 L 350 584 L 351 583 L 351 577 L 350 576 L 350 575 L 349 574 L 348 574 L 347 573 L 324 573 L 323 572 L 323 510 L 324 509 L 324 508 L 326 506 L 326 505 L 329 502 L 329 501 L 331 499 L 331 498 Z" fill="#2C3E50"/><path d="M 557 407 L 556 408 L 554 408 L 553 409 L 551 409 L 550 410 L 548 410 L 547 411 L 545 411 L 544 412 L 542 412 L 541 413 L 539 413 L 538 414 L 536 414 L 535 415 L 532 415 L 531 416 L 529 416 L 528 417 L 525 417 L 524 418 L 522 418 L 522 424 L 523 424 L 524 425 L 525 425 L 526 426 L 527 426 L 528 427 L 529 427 L 532 430 L 532 431 L 533 432 L 533 434 L 534 435 L 534 489 L 533 490 L 533 492 L 532 493 L 532 494 L 530 496 L 529 496 L 528 497 L 527 497 L 526 498 L 523 498 L 522 499 L 522 504 L 524 506 L 528 506 L 529 505 L 571 505 L 572 504 L 572 499 L 571 498 L 568 498 L 567 497 L 565 497 L 564 496 L 563 496 L 560 493 L 560 491 L 559 490 L 559 417 L 560 416 L 560 409 L 558 407 Z" fill="#2C3E50"/><path d="M 616 406 L 615 407 L 612 407 L 611 408 L 609 408 L 608 409 L 606 409 L 605 410 L 604 410 L 603 411 L 602 411 L 600 413 L 599 413 L 597 415 L 596 415 L 585 426 L 585 427 L 583 429 L 583 430 L 582 431 L 582 432 L 581 433 L 581 434 L 580 435 L 580 436 L 579 437 L 579 438 L 578 439 L 578 441 L 577 442 L 577 446 L 576 447 L 576 454 L 575 455 L 575 460 L 576 461 L 576 468 L 577 469 L 577 473 L 578 474 L 578 476 L 579 477 L 579 478 L 580 479 L 580 481 L 581 482 L 581 483 L 583 485 L 583 486 L 584 487 L 584 488 L 589 493 L 589 494 L 591 496 L 592 496 L 595 499 L 596 499 L 598 501 L 599 501 L 601 503 L 602 503 L 603 504 L 604 504 L 605 505 L 607 505 L 608 506 L 610 506 L 611 507 L 614 507 L 615 508 L 633 508 L 634 507 L 637 507 L 638 506 L 640 506 L 641 505 L 643 505 L 644 504 L 645 504 L 646 503 L 647 503 L 649 501 L 650 501 L 652 499 L 653 499 L 656 496 L 657 496 L 661 492 L 661 491 L 664 488 L 664 487 L 666 485 L 666 484 L 667 483 L 667 482 L 668 481 L 668 480 L 669 479 L 669 477 L 670 476 L 670 474 L 671 473 L 671 470 L 672 469 L 672 464 L 673 463 L 673 452 L 672 451 L 672 446 L 671 445 L 671 442 L 670 441 L 670 438 L 669 437 L 669 436 L 668 435 L 668 433 L 667 432 L 667 431 L 665 429 L 665 428 L 663 426 L 663 425 L 658 420 L 658 419 L 657 419 L 653 415 L 652 415 L 650 413 L 649 413 L 647 411 L 645 411 L 644 410 L 643 410 L 642 409 L 641 409 L 640 408 L 637 408 L 636 407 L 633 407 L 632 406 Z" fill="#2C3E50"/><path d="M 742 405 L 741 406 L 737 406 L 736 407 L 734 407 L 733 408 L 731 408 L 730 409 L 729 409 L 727 411 L 726 411 L 718 419 L 718 420 L 717 421 L 716 420 L 716 407 L 712 407 L 711 408 L 709 408 L 708 409 L 706 409 L 705 410 L 703 410 L 702 411 L 700 411 L 699 412 L 697 412 L 696 413 L 693 413 L 692 414 L 690 414 L 689 415 L 686 415 L 685 416 L 682 416 L 681 417 L 679 417 L 678 418 L 678 422 L 680 424 L 685 424 L 686 425 L 687 425 L 690 428 L 690 429 L 691 430 L 691 490 L 690 491 L 690 493 L 687 496 L 686 496 L 685 497 L 683 497 L 682 498 L 678 498 L 678 499 L 677 500 L 677 502 L 678 503 L 678 505 L 679 505 L 680 506 L 689 506 L 690 505 L 727 505 L 728 504 L 728 499 L 727 498 L 724 498 L 723 497 L 721 497 L 717 493 L 717 490 L 716 489 L 716 433 L 717 432 L 717 431 L 718 430 L 718 429 L 719 428 L 720 428 L 722 426 L 723 426 L 724 425 L 725 425 L 726 424 L 728 424 L 729 423 L 738 423 L 739 424 L 741 424 L 742 425 L 743 425 L 748 430 L 748 431 L 749 432 L 749 434 L 750 435 L 750 438 L 751 439 L 751 489 L 750 490 L 750 492 L 749 493 L 749 494 L 746 497 L 744 497 L 743 498 L 740 498 L 739 499 L 739 504 L 740 505 L 787 505 L 788 504 L 788 498 L 787 498 L 786 497 L 783 497 L 782 496 L 781 496 L 780 495 L 779 495 L 777 493 L 777 492 L 776 491 L 776 490 L 775 489 L 775 428 L 774 427 L 774 424 L 773 423 L 773 422 L 772 421 L 772 420 L 771 419 L 771 418 L 763 410 L 762 410 L 761 409 L 760 409 L 759 408 L 758 408 L 757 407 L 755 407 L 754 406 L 750 406 L 749 405 Z" fill="#2C3E50"/><path d="M 612 405 Z" fill="#2C3E50"/><path d="M 541 364 L 540 365 L 539 365 L 538 366 L 537 366 L 532 371 L 532 373 L 531 374 L 531 378 L 530 379 L 531 380 L 531 383 L 532 384 L 532 386 L 537 391 L 538 391 L 539 392 L 540 392 L 541 393 L 543 393 L 544 394 L 547 394 L 548 393 L 551 393 L 552 392 L 553 392 L 554 391 L 555 391 L 559 387 L 559 386 L 560 385 L 560 384 L 561 383 L 561 375 L 560 374 L 560 372 L 558 370 L 558 369 L 556 367 L 555 367 L 553 365 L 552 365 L 551 364 Z" fill="#2C3E50"/><path d="M 406 364 L 406 367 L 405 368 L 405 379 L 404 380 L 404 391 L 403 392 L 403 404 L 402 405 L 402 406 L 403 407 L 403 408 L 411 408 L 412 407 L 412 405 L 413 404 L 413 402 L 414 401 L 414 399 L 415 398 L 415 396 L 416 395 L 416 394 L 417 393 L 417 392 L 419 390 L 419 389 L 421 387 L 421 386 L 425 382 L 426 382 L 428 380 L 429 380 L 430 379 L 431 379 L 432 378 L 433 378 L 434 377 L 437 377 L 438 376 L 444 376 L 445 375 L 475 375 L 476 376 L 476 377 L 474 379 L 474 380 L 473 381 L 473 382 L 472 383 L 472 384 L 471 385 L 471 386 L 469 388 L 469 389 L 468 390 L 468 391 L 466 393 L 466 394 L 465 395 L 465 396 L 463 398 L 463 399 L 462 400 L 462 401 L 460 403 L 460 404 L 459 405 L 459 406 L 457 408 L 457 409 L 455 411 L 455 412 L 454 413 L 454 414 L 452 416 L 452 417 L 451 418 L 451 419 L 449 421 L 449 422 L 447 424 L 447 425 L 446 426 L 446 427 L 444 429 L 444 430 L 443 431 L 443 432 L 441 434 L 441 435 L 440 436 L 440 437 L 438 439 L 438 440 L 437 441 L 437 442 L 435 444 L 435 445 L 434 446 L 434 447 L 432 449 L 432 450 L 431 451 L 431 452 L 429 454 L 429 455 L 428 456 L 428 457 L 426 459 L 426 460 L 424 462 L 424 463 L 423 464 L 423 465 L 421 467 L 421 468 L 420 469 L 420 470 L 418 472 L 418 473 L 417 474 L 417 475 L 415 477 L 415 478 L 414 479 L 414 480 L 412 482 L 412 483 L 411 484 L 411 485 L 409 487 L 409 488 L 408 489 L 408 490 L 406 492 L 406 493 L 405 494 L 405 495 L 403 497 L 403 498 L 402 499 L 402 500 L 401 501 L 401 505 L 402 506 L 430 506 L 431 505 L 507 505 L 507 503 L 508 502 L 508 498 L 509 497 L 509 493 L 510 492 L 510 489 L 511 488 L 511 483 L 512 482 L 512 478 L 513 477 L 513 474 L 514 473 L 514 469 L 515 468 L 515 465 L 514 464 L 507 464 L 506 465 L 506 466 L 505 467 L 505 469 L 504 470 L 504 471 L 503 472 L 503 473 L 502 474 L 502 475 L 501 476 L 501 477 L 499 479 L 499 480 L 497 482 L 497 483 L 493 487 L 492 487 L 490 489 L 489 489 L 488 490 L 487 490 L 486 491 L 484 491 L 483 492 L 481 492 L 480 493 L 440 493 L 439 492 L 441 490 L 441 489 L 442 488 L 442 487 L 443 486 L 443 485 L 445 483 L 445 482 L 446 481 L 446 480 L 448 478 L 448 477 L 449 476 L 449 475 L 451 473 L 451 472 L 452 471 L 452 470 L 454 468 L 454 467 L 455 466 L 455 465 L 457 463 L 457 462 L 458 461 L 458 460 L 459 459 L 459 458 L 461 456 L 461 455 L 462 454 L 462 453 L 464 451 L 464 450 L 465 449 L 465 448 L 467 446 L 467 445 L 468 444 L 468 443 L 470 441 L 470 440 L 471 439 L 471 438 L 473 436 L 473 435 L 474 434 L 474 433 L 476 431 L 476 430 L 477 429 L 477 428 L 479 426 L 479 425 L 480 424 L 480 423 L 482 421 L 482 420 L 483 419 L 483 418 L 485 416 L 485 415 L 486 414 L 486 413 L 488 411 L 488 410 L 489 409 L 489 408 L 491 406 L 491 405 L 492 404 L 492 403 L 494 401 L 494 400 L 495 399 L 495 398 L 497 396 L 497 395 L 498 394 L 498 393 L 500 391 L 500 390 L 501 389 L 501 388 L 503 386 L 503 385 L 504 384 L 504 383 L 506 381 L 506 380 L 507 379 L 507 378 L 509 376 L 509 375 L 510 374 L 510 373 L 512 371 L 512 370 L 513 369 L 513 364 Z" fill="#2C3E50"/><path d="M 247 276 L 245 278 L 245 279 L 244 280 L 244 283 L 246 283 L 247 284 L 251 284 L 252 285 L 255 285 L 258 288 L 258 289 L 259 290 L 259 295 L 260 296 L 260 299 L 261 300 L 261 301 L 262 302 L 262 303 L 263 304 L 263 305 L 273 315 L 273 327 L 272 328 L 272 331 L 273 332 L 273 337 L 274 338 L 274 359 L 275 360 L 275 361 L 276 362 L 276 363 L 277 364 L 277 365 L 278 366 L 278 367 L 274 371 L 274 372 L 273 373 L 273 374 L 272 375 L 272 380 L 273 381 L 273 382 L 274 383 L 274 388 L 273 389 L 273 392 L 272 393 L 272 397 L 271 398 L 271 402 L 270 403 L 270 406 L 269 407 L 269 411 L 268 412 L 268 415 L 267 416 L 267 420 L 266 421 L 266 425 L 265 426 L 265 429 L 264 430 L 264 434 L 263 435 L 263 439 L 262 440 L 262 443 L 261 444 L 261 448 L 260 449 L 260 453 L 259 454 L 259 457 L 258 458 L 258 462 L 257 463 L 257 466 L 256 467 L 256 471 L 255 472 L 255 474 L 254 475 L 254 478 L 253 479 L 253 481 L 252 482 L 241 482 L 239 484 L 239 489 L 240 490 L 240 491 L 322 491 L 323 490 L 323 484 L 321 482 L 310 482 L 309 481 L 309 480 L 308 479 L 308 477 L 307 476 L 307 473 L 306 472 L 306 468 L 305 467 L 305 463 L 304 462 L 304 458 L 303 457 L 303 454 L 302 453 L 302 449 L 301 448 L 301 444 L 300 443 L 300 439 L 299 438 L 299 434 L 298 433 L 298 430 L 297 429 L 297 425 L 296 424 L 296 420 L 295 419 L 295 415 L 294 414 L 294 411 L 293 410 L 293 406 L 292 405 L 292 401 L 291 400 L 291 397 L 290 396 L 290 391 L 289 390 L 289 387 L 288 386 L 288 384 L 289 383 L 289 382 L 290 381 L 290 374 L 289 373 L 289 372 L 287 370 L 287 369 L 285 367 L 285 365 L 286 364 L 286 363 L 290 359 L 290 356 L 291 355 L 290 354 L 290 353 L 291 352 L 290 351 L 290 338 L 289 337 L 289 335 L 290 334 L 290 324 L 291 323 L 292 324 L 292 326 L 293 327 L 293 330 L 294 331 L 294 333 L 295 334 L 295 336 L 296 336 L 297 335 L 297 332 L 299 330 L 299 328 L 298 327 L 298 326 L 297 325 L 297 324 L 296 323 L 296 320 L 295 319 L 295 317 L 294 316 L 294 314 L 293 313 L 293 311 L 292 310 L 292 309 L 291 308 L 291 307 L 290 307 L 289 306 L 288 306 L 287 305 L 287 300 L 288 299 L 288 293 L 285 290 L 280 290 L 279 291 L 278 291 L 278 292 L 277 293 L 277 294 L 276 295 L 277 296 L 277 297 L 276 298 L 276 300 L 277 301 L 277 302 L 278 303 L 277 304 L 276 304 L 275 303 L 271 303 L 270 302 L 269 302 L 268 301 L 268 300 L 265 297 L 265 296 L 264 295 L 264 292 L 265 291 L 266 292 L 267 292 L 268 293 L 269 293 L 270 294 L 271 294 L 270 293 L 270 292 L 268 290 L 268 289 L 267 289 L 265 287 L 264 287 L 263 286 L 262 286 L 261 285 L 260 285 L 259 284 L 258 284 L 256 282 L 255 282 L 253 280 L 252 280 L 249 277 L 249 276 Z" fill="#2C3E50"/>
</svg>